<svg width="39" height="39" viewBox="0 0 39 39" fill="none" xmlns="http://www.w3.org/2000/svg">
    <path d="M13 10L13 6.77193C13 4.52242 13 3.39767 13.6115 2.69883C14.223 2 15.2071 2 17.1754 2L22.8246 2C24.7929 2 25.777 2 26.3885 2.69883C27 3.39767 27 4.52242 27 6.77193V10" stroke="black" stroke-width="2"/>
    <path d="M23 16V30" stroke="black" stroke-width="2" stroke-linecap="round"/>
    <path d="M17 16V30" stroke="black" stroke-width="2" stroke-linecap="round"/>
    <path d="M31.1798 31.2255C30.9898 32.9456 30.8559 34.1406 30.6385 35.0382C30.4279 35.9082 30.167 36.3686 29.8061 36.6918C29.4453 37.0149 28.9591 37.2237 28.0712 37.3376C27.1552 37.4551 25.9527 37.457 24.2221 37.457L15.7781 37.457C14.0475 37.457 12.845 37.4551 11.9289 37.3376C11.0411 37.2237 10.5549 37.0149 10.194 36.6918C9.83318 36.3686 9.57227 35.9082 9.36162 35.0382C9.14427 34.1406 9.01034 32.9456 8.82036 31.2255L6.47606 9.99995L33.5241 9.99996L31.1798 31.2255Z" stroke="black" stroke-width="2"/>
    <path d="M4 10H36" stroke="black" stroke-width="2" stroke-linecap="round"/>
</svg>
