<svg width="37" height="37" viewBox="0 0 37 37" fill="none" xmlns="http://www.w3.org/2000/svg">
    <path d="M2 16.5627C2 14.4257 2.97364 12.4063 4.64247 11.0821L14.1951 3.50211C16.7191 1.49929 20.2809 1.4993 22.8049 3.50211L32.3575 11.0821C34.0264 12.4063 35 14.4257 35 16.5627V28.0172C35 31.8737 31.8896 35 28.0526 35H25.4474C24.4881 35 23.7105 34.2184 23.7105 33.2543V28.0172C23.7105 26.089 22.1553 24.5259 20.2368 24.5259H16.7632C14.8447 24.5259 13.2895 26.089 13.2895 28.0172V33.2543C13.2895 34.2184 12.5119 35 11.5526 35H8.94737C5.11044 35 2 31.8737 2 28.0172V16.5627Z" stroke="white" stroke-width="3"/>
</svg>
