<svg width="32" height="38" viewBox="0 0 32 38" fill="none" xmlns="http://www.w3.org/2000/svg">
    <path d="M21.2503 28.4444V30.3333C21.2503 33.4629 18.8998 36 16.0002 36C13.1007 36 10.7502 33.4629 10.7502 30.3333V28.4444M21.2503 28.4444H10.7502M21.2503 28.4444H27.5338C28.2032 28.4444 28.5396 28.4444 28.8106 28.3458C29.3284 28.1572 29.7336 27.7184 29.9082 27.1596C30 26.8659 30 26.5017 30 25.7734C30 25.4548 29.9997 25.2954 29.9766 25.1435C29.9329 24.8564 29.8297 24.5842 29.6725 24.3479C29.5894 24.223 29.4838 24.109 29.2757 23.8843L28.594 23.1485C28.374 22.9112 28.2505 22.5891 28.2505 22.2534V15.2222C28.2505 7.91978 22.7659 1.99998 16.0002 2C9.23465 2.00002 3.75003 7.9198 3.75003 15.2222V22.2535C3.75003 22.5892 3.62621 22.9112 3.40626 23.1485L2.72462 23.8843C2.51584 24.1096 2.41133 24.2229 2.32813 24.3479C2.1709 24.5843 2.06676 24.8564 2.0231 25.1435C2 25.2954 2 25.4548 2 25.7735C2 26.5017 2 26.8658 2.09179 27.1595C2.26644 27.7184 2.67341 28.1572 3.19118 28.3458C3.46225 28.4444 3.79731 28.4444 4.46677 28.4444H10.7502" stroke="white" stroke-width="3" stroke-linecap="round" stroke-linejoin="round"/>
</svg>
