<svg width="29" height="29" viewBox="0 0 29 29" fill="none" xmlns="http://www.w3.org/2000/svg">
    <path fill-rule="evenodd" clip-rule="evenodd" d="M29 14.5C29 22.5081 22.5081 29 14.5 29C6.49187 29 0 22.5081 0 14.5C0 6.49187 6.49187 0 14.5 0C22.5081 0 29 6.49187 29 14.5ZM9.70978 13.1718C8.25727 13.8059 6.76482 14.4576 5.40012 15.2093L5.40002 15.2094C4.68742 15.7311 5.63461 16.1001 6.52314 16.4463C6.66441 16.5013 6.80418 16.5558 6.93557 16.6102C7.04491 16.6438 7.1561 16.6792 7.26877 16.7151C8.25698 17.03 9.35891 17.381 10.3183 16.8529C11.8943 15.9476 13.3816 14.9009 14.8678 13.855C15.3547 13.5124 15.8415 13.1698 16.3312 12.8323C16.3541 12.8176 16.38 12.8008 16.4083 12.7825C16.8256 12.5121 17.7639 11.9038 17.4168 12.7419C16.5961 13.6395 15.717 14.434 14.8331 15.2328C14.2374 15.7712 13.6396 16.3116 13.0559 16.8867C12.5476 17.2997 12.0198 18.1303 12.589 18.7087C13.8999 19.6264 15.2314 20.5219 16.562 21.4169C16.9951 21.7082 17.4281 21.9994 17.8602 22.2912C18.5926 22.876 19.7372 22.403 19.8982 21.4893C19.9698 21.069 20.0417 20.6487 20.1135 20.2284C20.5108 17.9056 20.9083 15.5819 21.2594 13.2515C21.3071 12.8859 21.3612 12.5204 21.4153 12.1547C21.5465 11.2683 21.6778 10.3808 21.7188 9.48969C21.6131 8.6004 20.5348 8.79593 19.9347 8.9959C16.8503 10.1695 13.7967 11.4302 10.7552 12.7131C10.4107 12.8657 10.0614 13.0182 9.70978 13.1718Z" fill="white"/>
</svg>
