<svg width="29" height="29" viewBox="0 0 29 29" fill="none" xmlns="http://www.w3.org/2000/svg">
    <path fill-rule="evenodd" clip-rule="evenodd" d="M18.9513 0H10.0487C1.92378 0 0 1.92378 0 10.0487V18.9513C0 27.0762 1.92378 29 10.0487 29H18.9513C27.0762 29 29 27.0762 29 18.9513V10.0487C29 1.92378 27.0762 0 18.9513 0ZM23.1057 9.2096C23.7402 9.2096 23.8834 9.53705 23.7402 9.98729C23.5166 11.0192 21.66 13.7564 21.0849 14.6042C20.9756 14.7653 20.9126 14.8581 20.9159 14.8581C20.6908 15.2265 20.6089 15.3903 20.9159 15.7996C21.0269 15.9509 21.2622 16.1818 21.5311 16.4457C21.8077 16.7172 22.1199 17.0235 22.369 17.314C23.2695 18.3373 23.9653 19.1969 24.1495 19.7904C24.3132 20.3839 24.0267 20.6909 23.4127 20.6909H21.3047C20.7461 20.6909 20.4582 20.3701 19.8445 19.6864C19.5813 19.3932 19.2583 19.0333 18.8284 18.6034C17.58 17.3959 17.0274 17.2322 16.7204 17.2322C16.2906 17.2322 16.1678 17.3345 16.1678 17.9485V19.8518C16.1678 20.3634 16.0041 20.6704 14.6534 20.6704C12.4226 20.6704 9.94624 19.3197 8.20665 16.8024C5.58703 13.1186 4.87073 10.3352 4.87073 9.78264C4.87073 9.47565 4.97306 9.18913 5.58703 9.18913H7.71547C8.24758 9.18913 8.45224 9.41425 8.6569 10.0078C9.70065 13.0162 11.4402 15.6563 12.1565 15.6563C12.4226 15.6563 12.5454 15.5335 12.5454 14.8581V11.7474C12.4949 10.8631 12.1871 10.4779 11.9588 10.1922C11.8173 10.015 11.7063 9.87616 11.7063 9.68031C11.7063 9.43472 11.911 9.18913 12.2384 9.18913H15.5539C16.0041 9.18913 16.1678 9.43472 16.1678 9.96683V14.1623C16.1678 14.6126 16.352 14.7763 16.4953 14.7763C16.7613 14.7763 16.9865 14.6126 17.4776 14.1214C18.9921 12.4227 20.0768 9.8031 20.0768 9.8031C20.2201 9.49612 20.4656 9.2096 20.9978 9.2096H23.1057Z" fill="white"/>
</svg>
